<?xml version="1.0" encoding="UTF-8" standalone="no"?>
<!DOCTYPE svg PUBLIC "-//W3C//DTD SVG 1.1//EN"
 "http://www.w3.org/Graphics/SVG/1.1/DTD/svg11.dtd">
<!-- Generated by graphviz version 2.43.0 (0)
 -->
<!-- Title: AbstractPlayer::getName Pages: 1 -->
<svg width="338pt" height="78pt"
 viewBox="0.00 0.00 338.00 77.50" xmlns="http://www.w3.org/2000/svg" xmlns:xlink="http://www.w3.org/1999/xlink">
<g id="graph0" class="graph" transform="scale(1 1) rotate(0) translate(4 73.5)">
<title>AbstractPlayer::getName</title>
<polygon fill="white" stroke="transparent" points="-4,4 -4,-73.5 334,-73.5 334,4 -4,4"/>
<!-- Node1 -->
<g id="node1" class="node">
<title>Node1</title>
<g id="a_node1"><a xlink:title="Retrieves the name of the player.">
<polygon fill="#bfbfbf" stroke="black" points="191,-22.5 191,-41.5 330,-41.5 330,-22.5 191,-22.5"/>
<text text-anchor="middle" x="260.5" y="-29.5" font-family="Helvetica,sans-Serif" font-size="10.00">AbstractPlayer::getName</text>
</a>
</g>
</g>
<!-- Node2 -->
<g id="node2" class="node">
<title>Node2</title>
<g id="a_node2"><a xlink:href="classAIPlayerSimple.html#ad54d672904a954b232ce7f8212a9afe2" target="_top" xlink:title="Constructs a Player with a given name and initial number of lives.">
<polygon fill="white" stroke="black" points="9,-39 9,-69 146,-69 146,-39 9,-39"/>
<text text-anchor="start" x="17" y="-57" font-family="Helvetica,sans-Serif" font-size="10.00">AIPlayerSimple::AIPlayer</text>
<text text-anchor="middle" x="77.5" y="-46" font-family="Helvetica,sans-Serif" font-size="10.00">Simple</text>
</a>
</g>
</g>
<!-- Node1&#45;&gt;Node2 -->
<g id="edge1" class="edge">
<title>Node1&#45;&gt;Node2</title>
<path fill="none" stroke="midnightblue" d="M180.78,-41.57C169.27,-42.97 157.51,-44.4 146.24,-45.77"/>
<polygon fill="midnightblue" stroke="midnightblue" points="181.31,-45.03 190.81,-40.35 180.46,-38.08 181.31,-45.03"/>
</g>
<!-- Node3 -->
<g id="node3" class="node">
<title>Node3</title>
<g id="a_node3"><a xlink:href="classHumanPlayer.html#a376c501e2860264bbf10a9207314eb18" target="_top" xlink:title="Constructs a Player with a given name and initial number of lives.">
<polygon fill="white" stroke="black" points="0,-0.5 0,-19.5 155,-19.5 155,-0.5 0,-0.5"/>
<text text-anchor="middle" x="77.5" y="-7.5" font-family="Helvetica,sans-Serif" font-size="10.00">HumanPlayer::HumanPlayer</text>
</a>
</g>
</g>
<!-- Node1&#45;&gt;Node3 -->
<g id="edge2" class="edge">
<title>Node1&#45;&gt;Node3</title>
<path fill="none" stroke="midnightblue" d="M180.84,-22.44C172.27,-21.4 163.55,-20.34 155.01,-19.3"/>
<polygon fill="midnightblue" stroke="midnightblue" points="180.46,-25.92 190.81,-23.65 181.31,-18.97 180.46,-25.92"/>
</g>
</g>
</svg>
