<?xml version="1.0" encoding="UTF-8" standalone="no"?>
<!DOCTYPE svg PUBLIC "-//W3C//DTD SVG 1.1//EN"
 "http://www.w3.org/Graphics/SVG/1.1/DTD/svg11.dtd">
<!-- Generated by graphviz version 2.43.0 (0)
 -->
<!-- Title: Logger::LogStream::flushIfNeeded Pages: 1 -->
<svg width="403pt" height="66pt"
 viewBox="0.00 0.00 403.00 66.00" xmlns="http://www.w3.org/2000/svg" xmlns:xlink="http://www.w3.org/1999/xlink">
<g id="graph0" class="graph" transform="scale(1 1) rotate(0) translate(4 62)">
<title>Logger::LogStream::flushIfNeeded</title>
<polygon fill="white" stroke="transparent" points="-4,4 -4,-62 399,-62 399,4 -4,4"/>
<!-- Node1 -->
<g id="node1" class="node">
<title>Node1</title>
<g id="a_node1"><a xlink:title=" ">
<polygon fill="#bfbfbf" stroke="black" points="0,-14 0,-44 114,-44 114,-14 0,-14"/>
<text text-anchor="start" x="8" y="-32" font-family="Helvetica,sans-Serif" font-size="10.00">Logger::LogStream::</text>
<text text-anchor="middle" x="57" y="-21" font-family="Helvetica,sans-Serif" font-size="10.00">flushIfNeeded</text>
</a>
</g>
</g>
<!-- Node2 -->
<g id="node2" class="node">
<title>Node2</title>
<g id="a_node2"><a xlink:href="classLogger.html#a1eb58a68183e00f1ce785374ba4a56b2" target="_top" xlink:title="Emits a log message to the enabled sinks (console and/or file).">
<polygon fill="white" stroke="black" points="150,-19.5 150,-38.5 228,-38.5 228,-19.5 150,-19.5"/>
<text text-anchor="middle" x="189" y="-26.5" font-family="Helvetica,sans-Serif" font-size="10.00">Logger::emit</text>
</a>
</g>
</g>
<!-- Node1&#45;&gt;Node2 -->
<g id="edge1" class="edge">
<title>Node1&#45;&gt;Node2</title>
<path fill="none" stroke="midnightblue" d="M114.26,-29C122.66,-29 131.25,-29 139.47,-29"/>
<polygon fill="midnightblue" stroke="midnightblue" points="139.63,-32.5 149.63,-29 139.63,-25.5 139.63,-32.5"/>
</g>
<!-- Node3 -->
<g id="node3" class="node">
<title>Node3</title>
<g id="a_node3"><a xlink:href="classLogger.html#a54f513e8e84dccdc3c6ffd3de6d66983" target="_top" xlink:title="Converts a log level enum to its string representation.">
<polygon fill="white" stroke="black" points="275,-38.5 275,-57.5 384,-57.5 384,-38.5 275,-38.5"/>
<text text-anchor="middle" x="329.5" y="-45.5" font-family="Helvetica,sans-Serif" font-size="10.00">Logger::levelName</text>
</a>
</g>
</g>
<!-- Node2&#45;&gt;Node3 -->
<g id="edge2" class="edge">
<title>Node2&#45;&gt;Node3</title>
<path fill="none" stroke="midnightblue" d="M228.21,-34.24C239.58,-35.8 252.36,-37.56 264.9,-39.27"/>
<polygon fill="midnightblue" stroke="midnightblue" points="264.48,-42.75 274.86,-40.64 265.43,-35.82 264.48,-42.75"/>
</g>
<!-- Node4 -->
<g id="node4" class="node">
<title>Node4</title>
<g id="a_node4"><a xlink:href="classLogger.html#a964dccab7485ccf9dafc3e2e3544a2fd" target="_top" xlink:title="Generates a timestamp string for log entries.">
<polygon fill="white" stroke="black" points="264,-0.5 264,-19.5 395,-19.5 395,-0.5 264,-0.5"/>
<text text-anchor="middle" x="329.5" y="-7.5" font-family="Helvetica,sans-Serif" font-size="10.00">Logger::nowTimestamp</text>
</a>
</g>
</g>
<!-- Node2&#45;&gt;Node4 -->
<g id="edge3" class="edge">
<title>Node2&#45;&gt;Node4</title>
<path fill="none" stroke="midnightblue" d="M228.21,-23.76C236.24,-22.66 244.97,-21.46 253.82,-20.25"/>
<polygon fill="midnightblue" stroke="midnightblue" points="254.4,-23.7 263.83,-18.87 253.45,-16.76 254.4,-23.7"/>
</g>
</g>
</svg>
