<?xml version="1.0" encoding="UTF-8" standalone="no"?>
<!DOCTYPE svg PUBLIC "-//W3C//DTD SVG 1.1//EN"
 "http://www.w3.org/Graphics/SVG/1.1/DTD/svg11.dtd">
<!-- Generated by graphviz version 2.43.0 (0)
 -->
<!-- Title: AIPlayerSimple::trustsAnnouncement Pages: 1 -->
<svg width="743pt" height="142pt"
 viewBox="0.00 0.00 743.00 142.00" xmlns="http://www.w3.org/2000/svg" xmlns:xlink="http://www.w3.org/1999/xlink">
<g id="graph0" class="graph" transform="scale(1 1) rotate(0) translate(4 138)">
<title>AIPlayerSimple::trustsAnnouncement</title>
<polygon fill="white" stroke="transparent" points="-4,4 -4,-138 739,-138 739,4 -4,4"/>
<!-- Node1 -->
<g id="node1" class="node">
<title>Node1</title>
<g id="a_node1"><a xlink:title="Decides whether to trust a given announcement.">
<polygon fill="#bfbfbf" stroke="black" points="0,-57.5 0,-76.5 198,-76.5 198,-57.5 0,-57.5"/>
<text text-anchor="middle" x="99" y="-64.5" font-family="Helvetica,sans-Serif" font-size="10.00">AIPlayerSimple::trustsAnnouncement</text>
</a>
</g>
</g>
<!-- Node2 -->
<g id="node2" class="node">
<title>Node2</title>
<g id="a_node2"><a xlink:href="classLogger.html#ada857f479ed965d4120afe3ad2700fda" target="_top" xlink:title=" ">
<polygon fill="white" stroke="black" points="260.5,-114.5 260.5,-133.5 346.5,-133.5 346.5,-114.5 260.5,-114.5"/>
<text text-anchor="middle" x="303.5" y="-121.5" font-family="Helvetica,sans-Serif" font-size="10.00">Logger::debug</text>
</a>
</g>
</g>
<!-- Node1&#45;&gt;Node2 -->
<g id="edge1" class="edge">
<title>Node1&#45;&gt;Node2</title>
<path fill="none" stroke="midnightblue" d="M133.89,-76.54C168.21,-86.2 221.41,-101.18 258.86,-111.72"/>
<polygon fill="midnightblue" stroke="midnightblue" points="257.92,-115.09 268.5,-114.43 259.82,-108.35 257.92,-115.09"/>
</g>
<!-- Node3 -->
<g id="node3" class="node">
<title>Node3</title>
<g id="a_node3"><a xlink:href="classMeiernDiceCup.html#a2a56033eafd871206f91e8671f8137ea" target="_top" xlink:title="Retrieves the current dice values as an Announcement.">
<polygon fill="white" stroke="black" points="409,-57.5 409,-76.5 570,-76.5 570,-57.5 409,-57.5"/>
<text text-anchor="middle" x="489.5" y="-64.5" font-family="Helvetica,sans-Serif" font-size="10.00">MeiernDiceCup::getDiceValue</text>
</a>
</g>
</g>
<!-- Node1&#45;&gt;Node3 -->
<g id="edge2" class="edge">
<title>Node1&#45;&gt;Node3</title>
<path fill="none" stroke="midnightblue" d="M198.03,-67C259.66,-67 338.56,-67 398.58,-67"/>
<polygon fill="midnightblue" stroke="midnightblue" points="398.8,-70.5 408.8,-67 398.8,-63.5 398.8,-70.5"/>
</g>
<!-- Node7 -->
<g id="node7" class="node">
<title>Node7</title>
<g id="a_node7"><a xlink:href="classAnnouncement.html#a49901230207db588db73a8d3a80fd347" target="_top" xlink:title=" ">
<polygon fill="white" stroke="black" points="234,-38.5 234,-57.5 373,-57.5 373,-38.5 234,-38.5"/>
<text text-anchor="middle" x="303.5" y="-45.5" font-family="Helvetica,sans-Serif" font-size="10.00">Announcement::getValue</text>
</a>
</g>
</g>
<!-- Node1&#45;&gt;Node7 -->
<g id="edge6" class="edge">
<title>Node1&#45;&gt;Node7</title>
<path fill="none" stroke="midnightblue" d="M198.28,-57.78C206.81,-56.98 215.36,-56.18 223.7,-55.39"/>
<polygon fill="midnightblue" stroke="midnightblue" points="224.12,-58.87 233.75,-54.45 223.47,-51.9 224.12,-58.87"/>
</g>
<!-- Node8 -->
<g id="node8" class="node">
<title>Node8</title>
<g id="a_node8"><a xlink:href="classMeiernDiceCup.html#ad2dc2b4ec4b857c2968c54f130bbb081" target="_top" xlink:title=" ">
<polygon fill="white" stroke="black" points="241,-0.5 241,-19.5 366,-19.5 366,-0.5 241,-0.5"/>
<text text-anchor="middle" x="303.5" y="-7.5" font-family="Helvetica,sans-Serif" font-size="10.00">MeiernDiceCup::shake</text>
</a>
</g>
</g>
<!-- Node1&#45;&gt;Node8 -->
<g id="edge7" class="edge">
<title>Node1&#45;&gt;Node8</title>
<path fill="none" stroke="midnightblue" d="M133.3,-57.5C160.41,-49.78 199.66,-38.63 234,-29 241.86,-26.8 250.22,-24.46 258.31,-22.22"/>
<polygon fill="midnightblue" stroke="midnightblue" points="259.29,-25.58 267.99,-19.53 257.42,-18.83 259.29,-25.58"/>
</g>
<!-- Node4 -->
<g id="node4" class="node">
<title>Node4</title>
<g id="a_node4"><a xlink:href="classDiceCup.html#ab263adf573f6b0561294b326fe41f137" target="_top" xlink:title="Returns the number of dice currently in the cup.">
<polygon fill="white" stroke="black" points="606,-95.5 606,-114.5 735,-114.5 735,-95.5 606,-95.5"/>
<text text-anchor="middle" x="670.5" y="-102.5" font-family="Helvetica,sans-Serif" font-size="10.00">DiceCup::getDiceCount</text>
</a>
</g>
</g>
<!-- Node3&#45;&gt;Node4 -->
<g id="edge3" class="edge">
<title>Node3&#45;&gt;Node4</title>
<path fill="none" stroke="midnightblue" d="M535.67,-76.59C559.72,-81.69 589.47,-88.01 614.82,-93.39"/>
<polygon fill="midnightblue" stroke="midnightblue" points="614.15,-96.83 624.66,-95.48 615.6,-89.98 614.15,-96.83"/>
</g>
<!-- Node5 -->
<g id="node5" class="node">
<title>Node5</title>
<g id="a_node5"><a xlink:href="classDiceCup.html#acbab0018d39626525d6fd42b6dac1c86" target="_top" xlink:title="Retrieves a constant pointer to the die at the specified index.">
<polygon fill="white" stroke="black" points="623,-57.5 623,-76.5 718,-76.5 718,-57.5 623,-57.5"/>
<text text-anchor="middle" x="670.5" y="-64.5" font-family="Helvetica,sans-Serif" font-size="10.00">DiceCup::getDie</text>
</a>
</g>
</g>
<!-- Node3&#45;&gt;Node5 -->
<g id="edge4" class="edge">
<title>Node3&#45;&gt;Node5</title>
<path fill="none" stroke="midnightblue" d="M570.05,-67C584.41,-67 599.12,-67 612.67,-67"/>
<polygon fill="midnightblue" stroke="midnightblue" points="612.78,-70.5 622.78,-67 612.78,-63.5 612.78,-70.5"/>
</g>
<!-- Node6 -->
<g id="node6" class="node">
<title>Node6</title>
<g id="a_node6"><a xlink:href="classDie.html#acc2c09cbe0da2d31caefd4e93fc61a12" target="_top" xlink:title="Retrieves the current value of the die.">
<polygon fill="white" stroke="black" points="629.5,-19.5 629.5,-38.5 711.5,-38.5 711.5,-19.5 629.5,-19.5"/>
<text text-anchor="middle" x="670.5" y="-26.5" font-family="Helvetica,sans-Serif" font-size="10.00">Die::getValue</text>
</a>
</g>
</g>
<!-- Node3&#45;&gt;Node6 -->
<g id="edge5" class="edge">
<title>Node3&#45;&gt;Node6</title>
<path fill="none" stroke="midnightblue" d="M535.67,-57.41C561.09,-52.01 592.89,-45.26 619.11,-39.7"/>
<polygon fill="midnightblue" stroke="midnightblue" points="620.18,-43.05 629.23,-37.55 618.72,-36.2 620.18,-43.05"/>
</g>
<!-- Node8&#45;&gt;Node3 -->
<g id="edge8" class="edge">
<title>Node8&#45;&gt;Node3</title>
<path fill="none" stroke="midnightblue" d="M340.15,-19.54C350.75,-22.47 362.37,-25.78 373,-29 399.22,-36.95 428.54,-46.6 451.08,-54.19"/>
<polygon fill="midnightblue" stroke="midnightblue" points="450.02,-57.53 460.61,-57.41 452.26,-50.9 450.02,-57.53"/>
</g>
<!-- Node9 -->
<g id="node9" class="node">
<title>Node9</title>
<g id="a_node9"><a xlink:href="classDiceCup.html#ae3de323007d290d3434cfcce157ee372" target="_top" xlink:title="Rolls all dice in the cup.">
<polygon fill="white" stroke="black" points="443.5,-0.5 443.5,-19.5 535.5,-19.5 535.5,-0.5 443.5,-0.5"/>
<text text-anchor="middle" x="489.5" y="-7.5" font-family="Helvetica,sans-Serif" font-size="10.00">DiceCup::shake</text>
</a>
</g>
</g>
<!-- Node8&#45;&gt;Node9 -->
<g id="edge9" class="edge">
<title>Node8&#45;&gt;Node9</title>
<path fill="none" stroke="midnightblue" d="M366.03,-10C387.75,-10 412.04,-10 433.21,-10"/>
<polygon fill="midnightblue" stroke="midnightblue" points="433.34,-13.5 443.34,-10 433.34,-6.5 433.34,-13.5"/>
</g>
</g>
</svg>
