<?xml version="1.0" encoding="UTF-8" standalone="no"?>
<!DOCTYPE svg PUBLIC "-//W3C//DTD SVG 1.1//EN"
 "http://www.w3.org/Graphics/SVG/1.1/DTD/svg11.dtd">
<!-- Generated by graphviz version 2.43.0 (0)
 -->
<!-- Title: Logger::emit Pages: 1 -->
<svg width="386pt" height="137pt"
 viewBox="0.00 0.00 386.00 137.00" xmlns="http://www.w3.org/2000/svg" xmlns:xlink="http://www.w3.org/1999/xlink">
<g id="graph0" class="graph" transform="scale(1 1) rotate(0) translate(4 133)">
<title>Logger::emit</title>
<polygon fill="white" stroke="transparent" points="-4,4 -4,-133 382,-133 382,4 -4,4"/>
<!-- Node1 -->
<g id="node1" class="node">
<title>Node1</title>
<g id="a_node1"><a xlink:title="Emits a log message to the enabled sinks (console and/or file).">
<polygon fill="#bfbfbf" stroke="black" points="300,-55 300,-74 378,-74 378,-55 300,-55"/>
<text text-anchor="middle" x="339" y="-62" font-family="Helvetica,sans-Serif" font-size="10.00">Logger::emit</text>
</a>
</g>
</g>
<!-- Node2 -->
<g id="node2" class="node">
<title>Node2</title>
<g id="a_node2"><a xlink:href="classLogger_1_1LogStream.html#a3b39ec3cc89e75aa2c3a383e62018971" target="_top" xlink:title=" ">
<polygon fill="white" stroke="black" points="150,-49.5 150,-79.5 264,-79.5 264,-49.5 150,-49.5"/>
<text text-anchor="start" x="158" y="-67.5" font-family="Helvetica,sans-Serif" font-size="10.00">Logger::LogStream::</text>
<text text-anchor="middle" x="207" y="-56.5" font-family="Helvetica,sans-Serif" font-size="10.00">flushIfNeeded</text>
</a>
</g>
</g>
<!-- Node1&#45;&gt;Node2 -->
<g id="edge1" class="edge">
<title>Node1&#45;&gt;Node2</title>
<path fill="none" stroke="midnightblue" d="M289.54,-64.5C281.32,-64.5 272.73,-64.5 264.33,-64.5"/>
<polygon fill="midnightblue" stroke="midnightblue" points="289.7,-68 299.7,-64.5 289.7,-61 289.7,-68"/>
</g>
<!-- Node3 -->
<g id="node3" class="node">
<title>Node3</title>
<g id="a_node3"><a xlink:href="classLogger_1_1LogStream.html#ae6b7a42074a563b147e524ef74da21e5" target="_top" xlink:title=" ">
<polygon fill="white" stroke="black" points="0,-98.5 0,-128.5 114,-128.5 114,-98.5 0,-98.5"/>
<text text-anchor="start" x="8" y="-116.5" font-family="Helvetica,sans-Serif" font-size="10.00">Logger::LogStream::</text>
<text text-anchor="middle" x="57" y="-105.5" font-family="Helvetica,sans-Serif" font-size="10.00">flush</text>
</a>
</g>
</g>
<!-- Node2&#45;&gt;Node3 -->
<g id="edge2" class="edge">
<title>Node2&#45;&gt;Node3</title>
<path fill="none" stroke="midnightblue" d="M150.85,-82.76C135.24,-87.93 118.43,-93.49 103.46,-98.45"/>
<polygon fill="midnightblue" stroke="midnightblue" points="151.99,-86.07 160.39,-79.6 149.79,-79.42 151.99,-86.07"/>
</g>
<!-- Node4 -->
<g id="node4" class="node">
<title>Node4</title>
<g id="a_node4"><a xlink:href="classLogger_1_1LogStream.html#ae657246a15bd4c3fee050efc2aee6110" target="_top" xlink:title=" ">
<polygon fill="white" stroke="black" points="0,-49.5 0,-79.5 114,-79.5 114,-49.5 0,-49.5"/>
<text text-anchor="start" x="8" y="-67.5" font-family="Helvetica,sans-Serif" font-size="10.00">Logger::LogStream::</text>
<text text-anchor="middle" x="57" y="-56.5" font-family="Helvetica,sans-Serif" font-size="10.00">operator=</text>
</a>
</g>
</g>
<!-- Node2&#45;&gt;Node4 -->
<g id="edge3" class="edge">
<title>Node2&#45;&gt;Node4</title>
<path fill="none" stroke="midnightblue" d="M139.44,-64.5C131.02,-64.5 122.46,-64.5 114.22,-64.5"/>
<polygon fill="midnightblue" stroke="midnightblue" points="139.63,-68 149.63,-64.5 139.63,-61 139.63,-68"/>
</g>
<!-- Node5 -->
<g id="node5" class="node">
<title>Node5</title>
<g id="a_node5"><a xlink:href="classLogger_1_1LogStream.html#a544defb6791006136ff6368bd3046a5e" target="_top" xlink:title=" ">
<polygon fill="white" stroke="black" points="0,-0.5 0,-30.5 114,-30.5 114,-0.5 0,-0.5"/>
<text text-anchor="start" x="8" y="-18.5" font-family="Helvetica,sans-Serif" font-size="10.00">Logger::LogStream::</text>
<text text-anchor="middle" x="57" y="-7.5" font-family="Helvetica,sans-Serif" font-size="10.00">~LogStream</text>
</a>
</g>
</g>
<!-- Node2&#45;&gt;Node5 -->
<g id="edge4" class="edge">
<title>Node2&#45;&gt;Node5</title>
<path fill="none" stroke="midnightblue" d="M150.85,-46.24C135.24,-41.07 118.43,-35.51 103.46,-30.55"/>
<polygon fill="midnightblue" stroke="midnightblue" points="149.79,-49.58 160.39,-49.4 151.99,-42.93 149.79,-49.58"/>
</g>
</g>
</svg>
