<?xml version="1.0" encoding="UTF-8" standalone="no"?>
<!DOCTYPE svg PUBLIC "-//W3C//DTD SVG 1.1//EN"
 "http://www.w3.org/Graphics/SVG/1.1/DTD/svg11.dtd">
<!-- Generated by graphviz version 2.43.0 (0)
 -->
<!-- Title: AIPlayerSimple::announceValue Pages: 1 -->
<svg width="327pt" height="66pt"
 viewBox="0.00 0.00 327.00 66.00" xmlns="http://www.w3.org/2000/svg" xmlns:xlink="http://www.w3.org/1999/xlink">
<g id="graph0" class="graph" transform="scale(1 1) rotate(0) translate(4 62)">
<title>AIPlayerSimple::announceValue</title>
<polygon fill="white" stroke="transparent" points="-4,4 -4,-62 323,-62 323,4 -4,4"/>
<!-- Node1 -->
<g id="node1" class="node">
<title>Node1</title>
<g id="a_node1"><a xlink:title="Announces a dice value.">
<polygon fill="#bfbfbf" stroke="black" points="0,-14 0,-44 144,-44 144,-14 0,-14"/>
<text text-anchor="start" x="8" y="-32" font-family="Helvetica,sans-Serif" font-size="10.00">AIPlayerSimple::announce</text>
<text text-anchor="middle" x="72" y="-21" font-family="Helvetica,sans-Serif" font-size="10.00">Value</text>
</a>
</g>
</g>
<!-- Node2 -->
<g id="node2" class="node">
<title>Node2</title>
<g id="a_node2"><a xlink:href="classAnnouncement.html#a49901230207db588db73a8d3a80fd347" target="_top" xlink:title=" ">
<polygon fill="white" stroke="black" points="180,-38.5 180,-57.5 319,-57.5 319,-38.5 180,-38.5"/>
<text text-anchor="middle" x="249.5" y="-45.5" font-family="Helvetica,sans-Serif" font-size="10.00">Announcement::getValue</text>
</a>
</g>
</g>
<!-- Node1&#45;&gt;Node2 -->
<g id="edge1" class="edge">
<title>Node1&#45;&gt;Node2</title>
<path fill="none" stroke="midnightblue" d="M144.13,-36.7C152.6,-37.62 161.28,-38.56 169.85,-39.48"/>
<polygon fill="midnightblue" stroke="midnightblue" points="169.51,-42.97 179.83,-40.57 170.26,-36.01 169.51,-42.97"/>
</g>
<!-- Node3 -->
<g id="node3" class="node">
<title>Node3</title>
<g id="a_node3"><a xlink:href="classLogger.html#a01c0418adaf7a2c70e330bbc727f4bcf" target="_top" xlink:title=" ">
<polygon fill="white" stroke="black" points="212.5,-0.5 212.5,-19.5 286.5,-19.5 286.5,-0.5 212.5,-0.5"/>
<text text-anchor="middle" x="249.5" y="-7.5" font-family="Helvetica,sans-Serif" font-size="10.00">Logger::info</text>
</a>
</g>
</g>
<!-- Node1&#45;&gt;Node3 -->
<g id="edge2" class="edge">
<title>Node1&#45;&gt;Node3</title>
<path fill="none" stroke="midnightblue" d="M144.13,-21.3C163.67,-19.18 184.35,-16.95 202.1,-15.02"/>
<polygon fill="midnightblue" stroke="midnightblue" points="202.62,-18.49 212.19,-13.93 201.87,-11.53 202.62,-18.49"/>
</g>
</g>
</svg>
