<?xml version="1.0" encoding="UTF-8" standalone="no"?>
<!DOCTYPE svg PUBLIC "-//W3C//DTD SVG 1.1//EN"
 "http://www.w3.org/Graphics/SVG/1.1/DTD/svg11.dtd">
<!-- Generated by graphviz version 2.43.0 (0)
 -->
<!-- Title: Game::displayCurrentPlayers Pages: 1 -->
<svg width="294pt" height="66pt"
 viewBox="0.00 0.00 294.00 66.00" xmlns="http://www.w3.org/2000/svg" xmlns:xlink="http://www.w3.org/1999/xlink">
<g id="graph0" class="graph" transform="scale(1 1) rotate(0) translate(4 62)">
<title>Game::displayCurrentPlayers</title>
<polygon fill="white" stroke="transparent" points="-4,4 -4,-62 290,-62 290,4 -4,4"/>
<!-- Node1 -->
<g id="node1" class="node">
<title>Node1</title>
<g id="a_node1"><a xlink:title=" ">
<polygon fill="#bfbfbf" stroke="black" points="0,-19.5 0,-38.5 159,-38.5 159,-19.5 0,-19.5"/>
<text text-anchor="middle" x="79.5" y="-26.5" font-family="Helvetica,sans-Serif" font-size="10.00">Game::displayCurrentPlayers</text>
</a>
</g>
</g>
<!-- Node2 -->
<g id="node2" class="node">
<title>Node2</title>
<g id="a_node2"><a xlink:href="classLogger.html#a01c0418adaf7a2c70e330bbc727f4bcf" target="_top" xlink:title=" ">
<polygon fill="white" stroke="black" points="203.5,-38.5 203.5,-57.5 277.5,-57.5 277.5,-38.5 203.5,-38.5"/>
<text text-anchor="middle" x="240.5" y="-45.5" font-family="Helvetica,sans-Serif" font-size="10.00">Logger::info</text>
</a>
</g>
</g>
<!-- Node1&#45;&gt;Node2 -->
<g id="edge1" class="edge">
<title>Node1&#45;&gt;Node2</title>
<path fill="none" stroke="midnightblue" d="M159.07,-38.39C170.81,-39.79 182.57,-41.2 193.34,-42.48"/>
<polygon fill="midnightblue" stroke="midnightblue" points="192.99,-45.97 203.33,-43.68 193.82,-39.02 192.99,-45.97"/>
</g>
<!-- Node3 -->
<g id="node3" class="node">
<title>Node3</title>
<g id="a_node3"><a xlink:href="classCyclicList.html#a6f2f89835357e21a066860f1b66db128" target="_top" xlink:title=" ">
<polygon fill="white" stroke="black" points="195,-0.5 195,-19.5 286,-19.5 286,-0.5 195,-0.5"/>
<text text-anchor="middle" x="240.5" y="-7.5" font-family="Helvetica,sans-Serif" font-size="10.00">CyclicList::next</text>
</a>
</g>
</g>
<!-- Node1&#45;&gt;Node3 -->
<g id="edge2" class="edge">
<title>Node1&#45;&gt;Node3</title>
<path fill="none" stroke="midnightblue" d="M159.07,-19.61C167.65,-18.59 176.25,-17.56 184.46,-16.58"/>
<polygon fill="midnightblue" stroke="midnightblue" points="185.11,-20.02 194.62,-15.36 184.28,-13.07 185.11,-20.02"/>
</g>
</g>
</svg>
