<?xml version="1.0" encoding="UTF-8" standalone="no"?>
<!DOCTYPE svg PUBLIC "-//W3C//DTD SVG 1.1//EN"
 "http://www.w3.org/Graphics/SVG/1.1/DTD/svg11.dtd">
<!-- Generated by graphviz version 2.43.0 (0)
 -->
<!-- Title: /mnt/d/private/github/Meiern/include/Interaction.h Pages: 1 -->
<svg width="380pt" height="173pt"
 viewBox="0.00 0.00 379.50 173.00" xmlns="http://www.w3.org/2000/svg" xmlns:xlink="http://www.w3.org/1999/xlink">
<g id="graph0" class="graph" transform="scale(1 1) rotate(0) translate(4 169)">
<title>/mnt/d/private/github/Meiern/include/Interaction.h</title>
<polygon fill="white" stroke="transparent" points="-4,4 -4,-169 375.5,-169 375.5,4 -4,4"/>
<!-- Node1 -->
<g id="node1" class="node">
<title>Node1</title>
<g id="a_node1"><a xlink:title="Declaration of the Interaction class.">
<polygon fill="#bfbfbf" stroke="black" points="141.5,-134.5 141.5,-164.5 297.5,-164.5 297.5,-134.5 141.5,-134.5"/>
<text text-anchor="start" x="149.5" y="-152.5" font-family="Helvetica,sans-Serif" font-size="10.00">/mnt/d/private/github</text>
<text text-anchor="middle" x="219.5" y="-141.5" font-family="Helvetica,sans-Serif" font-size="10.00">/Meiern/include/Interaction.h</text>
</a>
</g>
</g>
<!-- Node2 -->
<g id="node2" class="node">
<title>Node2</title>
<g id="a_node2"><a xlink:href="Game_8h.html" target="_top" xlink:title="Declaration of the Game class.">
<polygon fill="white" stroke="black" points="74,-67.5 74,-97.5 207,-97.5 207,-67.5 74,-67.5"/>
<text text-anchor="start" x="82" y="-85.5" font-family="Helvetica,sans-Serif" font-size="10.00">/mnt/d/private/github</text>
<text text-anchor="middle" x="140.5" y="-74.5" font-family="Helvetica,sans-Serif" font-size="10.00">/Meiern/include/Game.h</text>
</a>
</g>
</g>
<!-- Node1&#45;&gt;Node2 -->
<g id="edge1" class="edge">
<title>Node1&#45;&gt;Node2</title>
<path fill="none" stroke="midnightblue" d="M194.44,-127.88C182.44,-118.01 168.37,-106.43 157.61,-97.58"/>
<polygon fill="midnightblue" stroke="midnightblue" points="192.41,-130.75 202.36,-134.4 196.86,-125.34 192.41,-130.75"/>
</g>
<!-- Node5 -->
<g id="node5" class="node">
<title>Node5</title>
<g id="a_node5"><a xlink:href="Interaction_8cpp.html" target="_top" xlink:title="Implementation of the Interaction class for user input and output.">
<polygon fill="white" stroke="black" points="225.5,-67.5 225.5,-97.5 371.5,-97.5 371.5,-67.5 225.5,-67.5"/>
<text text-anchor="start" x="233.5" y="-85.5" font-family="Helvetica,sans-Serif" font-size="10.00">/mnt/d/private/github</text>
<text text-anchor="middle" x="298.5" y="-74.5" font-family="Helvetica,sans-Serif" font-size="10.00">/Meiern/src/Interaction.cpp</text>
</a>
</g>
</g>
<!-- Node1&#45;&gt;Node5 -->
<g id="edge4" class="edge">
<title>Node1&#45;&gt;Node5</title>
<path fill="none" stroke="midnightblue" d="M244.56,-127.88C256.56,-118.01 270.63,-106.43 281.39,-97.58"/>
<polygon fill="midnightblue" stroke="midnightblue" points="242.14,-125.34 236.64,-134.4 246.59,-130.75 242.14,-125.34"/>
</g>
<!-- Node3 -->
<g id="node3" class="node">
<title>Node3</title>
<g id="a_node3"><a xlink:href="Game_8cpp.html" target="_top" xlink:title="Implementation of the Game class for the Meiern dice game.">
<polygon fill="white" stroke="black" points="0,-0.5 0,-30.5 123,-30.5 123,-0.5 0,-0.5"/>
<text text-anchor="start" x="8" y="-18.5" font-family="Helvetica,sans-Serif" font-size="10.00">/mnt/d/private/github</text>
<text text-anchor="middle" x="61.5" y="-7.5" font-family="Helvetica,sans-Serif" font-size="10.00">/Meiern/src/Game.cpp</text>
</a>
</g>
</g>
<!-- Node2&#45;&gt;Node3 -->
<g id="edge2" class="edge">
<title>Node2&#45;&gt;Node3</title>
<path fill="none" stroke="midnightblue" d="M115.44,-60.88C103.44,-51.01 89.37,-39.43 78.61,-30.58"/>
<polygon fill="midnightblue" stroke="midnightblue" points="113.41,-63.75 123.36,-67.4 117.86,-58.34 113.41,-63.75"/>
</g>
<!-- Node4 -->
<g id="node4" class="node">
<title>Node4</title>
<g id="a_node4"><a xlink:href="meiern__main_8cpp.html" target="_top" xlink:title="Entry point for the Meiern game application.">
<polygon fill="white" stroke="black" points="141.5,-0.5 141.5,-30.5 299.5,-30.5 299.5,-0.5 141.5,-0.5"/>
<text text-anchor="start" x="149.5" y="-18.5" font-family="Helvetica,sans-Serif" font-size="10.00">/mnt/d/private/github</text>
<text text-anchor="middle" x="220.5" y="-7.5" font-family="Helvetica,sans-Serif" font-size="10.00">/Meiern/src/meiern_main.cpp</text>
</a>
</g>
</g>
<!-- Node2&#45;&gt;Node4 -->
<g id="edge3" class="edge">
<title>Node2&#45;&gt;Node4</title>
<path fill="none" stroke="midnightblue" d="M165.87,-60.88C178.03,-51.01 192.28,-39.43 203.18,-30.58"/>
<polygon fill="midnightblue" stroke="midnightblue" points="163.41,-58.37 157.86,-67.4 167.83,-63.81 163.41,-58.37"/>
</g>
</g>
</svg>
