<?xml version="1.0" encoding="UTF-8" standalone="no"?>
<!DOCTYPE svg PUBLIC "-//W3C//DTD SVG 1.1//EN"
 "http://www.w3.org/Graphics/SVG/1.1/DTD/svg11.dtd">
<!-- Generated by graphviz version 2.43.0 (0)
 -->
<!-- Title: /mnt/d/private/github/Meiern/src/Interaction.cpp Pages: 1 -->
<svg width="154pt" height="151pt"
 viewBox="0.00 0.00 154.00 151.00" xmlns="http://www.w3.org/2000/svg" xmlns:xlink="http://www.w3.org/1999/xlink">
<g id="graph0" class="graph" transform="scale(1 1) rotate(0) translate(4 147)">
<title>/mnt/d/private/github/Meiern/src/Interaction.cpp</title>
<polygon fill="white" stroke="transparent" points="-4,4 -4,-147 150,-147 150,4 -4,4"/>
<!-- Node1 -->
<g id="node1" class="node">
<title>Node1</title>
<g id="a_node1"><a xlink:title="Implementation of the Interaction class for user input and output.">
<polygon fill="#bfbfbf" stroke="black" points="0,-112.5 0,-142.5 146,-142.5 146,-112.5 0,-112.5"/>
<text text-anchor="start" x="8" y="-130.5" font-family="Helvetica,sans-Serif" font-size="10.00">/mnt/d/private/github</text>
<text text-anchor="middle" x="73" y="-119.5" font-family="Helvetica,sans-Serif" font-size="10.00">/Meiern/src/Interaction.cpp</text>
</a>
</g>
</g>
<!-- Node2 -->
<g id="node2" class="node">
<title>Node2</title>
<g id="a_node2"><a xlink:href="Interaction_8h.html" target="_top" xlink:title="Declaration of the Interaction class.">
<polygon fill="white" stroke="black" points="34,-56.5 34,-75.5 112,-75.5 112,-56.5 34,-56.5"/>
<text text-anchor="middle" x="73" y="-63.5" font-family="Helvetica,sans-Serif" font-size="10.00">Interaction.h</text>
</a>
</g>
</g>
<!-- Node1&#45;&gt;Node2 -->
<g id="edge1" class="edge">
<title>Node1&#45;&gt;Node2</title>
<path fill="none" stroke="midnightblue" d="M73,-112.4C73,-104.47 73,-94.46 73,-85.86"/>
<polygon fill="midnightblue" stroke="midnightblue" points="76.5,-85.66 73,-75.66 69.5,-85.66 76.5,-85.66"/>
</g>
<!-- Node3 -->
<g id="node3" class="node">
<title>Node3</title>
<g id="a_node3"><a xlink:title=" ">
<polygon fill="white" stroke="#bfbfbf" points="8,-0.5 8,-19.5 68,-19.5 68,-0.5 8,-0.5"/>
<text text-anchor="middle" x="38" y="-7.5" font-family="Helvetica,sans-Serif" font-size="10.00">iostream</text>
</a>
</g>
</g>
<!-- Node2&#45;&gt;Node3 -->
<g id="edge2" class="edge">
<title>Node2&#45;&gt;Node3</title>
<path fill="none" stroke="midnightblue" d="M67.22,-56.08C62.33,-48.53 55.17,-37.49 49.17,-28.23"/>
<polygon fill="midnightblue" stroke="midnightblue" points="52.05,-26.24 43.67,-19.75 46.17,-30.05 52.05,-26.24"/>
</g>
<!-- Node4 -->
<g id="node4" class="node">
<title>Node4</title>
<g id="a_node4"><a xlink:title=" ">
<polygon fill="white" stroke="#bfbfbf" points="86,-0.5 86,-19.5 130,-19.5 130,-0.5 86,-0.5"/>
<text text-anchor="middle" x="108" y="-7.5" font-family="Helvetica,sans-Serif" font-size="10.00">string</text>
</a>
</g>
</g>
<!-- Node2&#45;&gt;Node4 -->
<g id="edge3" class="edge">
<title>Node2&#45;&gt;Node4</title>
<path fill="none" stroke="midnightblue" d="M78.78,-56.08C83.67,-48.53 90.83,-37.49 96.83,-28.23"/>
<polygon fill="midnightblue" stroke="midnightblue" points="99.83,-30.05 102.33,-19.75 93.95,-26.24 99.83,-30.05"/>
</g>
</g>
</svg>
