<?xml version="1.0" encoding="UTF-8" standalone="no"?>
<!DOCTYPE svg PUBLIC "-//W3C//DTD SVG 1.1//EN"
 "http://www.w3.org/Graphics/SVG/1.1/DTD/svg11.dtd">
<!-- Generated by graphviz version 2.43.0 (0)
 -->
<!-- Title: /mnt/d/private/github/Meiern/src/Logger.cpp Pages: 1 -->
<svg width="694pt" height="151pt"
 viewBox="0.00 0.00 693.50 151.00" xmlns="http://www.w3.org/2000/svg" xmlns:xlink="http://www.w3.org/1999/xlink">
<g id="graph0" class="graph" transform="scale(1 1) rotate(0) translate(4 147)">
<title>/mnt/d/private/github/Meiern/src/Logger.cpp</title>
<polygon fill="white" stroke="transparent" points="-4,4 -4,-147 689.5,-147 689.5,4 -4,4"/>
<!-- Node1 -->
<g id="node1" class="node">
<title>Node1</title>
<g id="a_node1"><a xlink:title="Implementation of the Logger class.">
<polygon fill="#bfbfbf" stroke="black" points="282,-112.5 282,-142.5 408,-142.5 408,-112.5 282,-112.5"/>
<text text-anchor="start" x="290" y="-130.5" font-family="Helvetica,sans-Serif" font-size="10.00">/mnt/d/private/github</text>
<text text-anchor="middle" x="345" y="-119.5" font-family="Helvetica,sans-Serif" font-size="10.00">/Meiern/src/Logger.cpp</text>
</a>
</g>
</g>
<!-- Node2 -->
<g id="node2" class="node">
<title>Node2</title>
<g id="a_node2"><a xlink:href="Logger_8h.html" target="_top" xlink:title="Declaration of the Logger class.">
<polygon fill="white" stroke="black" points="316,-56.5 316,-75.5 374,-75.5 374,-56.5 316,-56.5"/>
<text text-anchor="middle" x="345" y="-63.5" font-family="Helvetica,sans-Serif" font-size="10.00">Logger.h</text>
</a>
</g>
</g>
<!-- Node1&#45;&gt;Node2 -->
<g id="edge1" class="edge">
<title>Node1&#45;&gt;Node2</title>
<path fill="none" stroke="midnightblue" d="M345,-112.4C345,-104.47 345,-94.46 345,-85.86"/>
<polygon fill="midnightblue" stroke="midnightblue" points="348.5,-85.66 345,-75.66 341.5,-85.66 348.5,-85.66"/>
</g>
<!-- Node3 -->
<g id="node3" class="node">
<title>Node3</title>
<g id="a_node3"><a xlink:title=" ">
<polygon fill="white" stroke="#bfbfbf" points="0,-0.5 0,-19.5 60,-19.5 60,-0.5 0,-0.5"/>
<text text-anchor="middle" x="30" y="-7.5" font-family="Helvetica,sans-Serif" font-size="10.00">iostream</text>
</a>
</g>
</g>
<!-- Node2&#45;&gt;Node3 -->
<g id="edge2" class="edge">
<title>Node2&#45;&gt;Node3</title>
<path fill="none" stroke="midnightblue" d="M315.88,-60.89C267.1,-53.87 165.59,-38.67 70.02,-20.1"/>
<polygon fill="midnightblue" stroke="midnightblue" points="70.68,-16.66 60.19,-18.17 69.33,-23.53 70.68,-16.66"/>
</g>
<!-- Node4 -->
<g id="node4" class="node">
<title>Node4</title>
<g id="a_node4"><a xlink:title=" ">
<polygon fill="white" stroke="#bfbfbf" points="78.5,-0.5 78.5,-19.5 133.5,-19.5 133.5,-0.5 78.5,-0.5"/>
<text text-anchor="middle" x="106" y="-7.5" font-family="Helvetica,sans-Serif" font-size="10.00">fstream</text>
</a>
</g>
</g>
<!-- Node2&#45;&gt;Node4 -->
<g id="edge3" class="edge">
<title>Node2&#45;&gt;Node4</title>
<path fill="none" stroke="midnightblue" d="M315.86,-58.69C278.4,-50.55 211.1,-35.78 143.79,-20.15"/>
<polygon fill="midnightblue" stroke="midnightblue" points="144.4,-16.7 133.87,-17.84 142.81,-23.52 144.4,-16.7"/>
</g>
<!-- Node5 -->
<g id="node5" class="node">
<title>Node5</title>
<g id="a_node5"><a xlink:title=" ">
<polygon fill="white" stroke="#bfbfbf" points="152,-0.5 152,-19.5 208,-19.5 208,-0.5 152,-0.5"/>
<text text-anchor="middle" x="180" y="-7.5" font-family="Helvetica,sans-Serif" font-size="10.00">sstream</text>
</a>
</g>
</g>
<!-- Node2&#45;&gt;Node5 -->
<g id="edge4" class="edge">
<title>Node2&#45;&gt;Node5</title>
<path fill="none" stroke="midnightblue" d="M318.86,-56.44C290.98,-47.32 246.65,-32.81 215.6,-22.65"/>
<polygon fill="midnightblue" stroke="midnightblue" points="216.62,-19.3 206.02,-19.52 214.44,-25.95 216.62,-19.3"/>
</g>
<!-- Node6 -->
<g id="node6" class="node">
<title>Node6</title>
<g id="a_node6"><a xlink:title=" ">
<polygon fill="white" stroke="#bfbfbf" points="226,-0.5 226,-19.5 270,-19.5 270,-0.5 226,-0.5"/>
<text text-anchor="middle" x="248" y="-7.5" font-family="Helvetica,sans-Serif" font-size="10.00">string</text>
</a>
</g>
</g>
<!-- Node2&#45;&gt;Node6 -->
<g id="edge5" class="edge">
<title>Node2&#45;&gt;Node6</title>
<path fill="none" stroke="midnightblue" d="M329.42,-56.32C314,-47.74 290.19,-34.49 272.29,-24.52"/>
<polygon fill="midnightblue" stroke="midnightblue" points="273.99,-21.46 263.55,-19.65 270.58,-27.58 273.99,-21.46"/>
</g>
<!-- Node7 -->
<g id="node7" class="node">
<title>Node7</title>
<g id="a_node7"><a xlink:title=" ">
<polygon fill="white" stroke="#bfbfbf" points="288,-0.5 288,-19.5 336,-19.5 336,-0.5 288,-0.5"/>
<text text-anchor="middle" x="312" y="-7.5" font-family="Helvetica,sans-Serif" font-size="10.00">mutex</text>
</a>
</g>
</g>
<!-- Node2&#45;&gt;Node7 -->
<g id="edge6" class="edge">
<title>Node2&#45;&gt;Node7</title>
<path fill="none" stroke="midnightblue" d="M339.55,-56.08C334.99,-48.61 328.33,-37.72 322.71,-28.52"/>
<polygon fill="midnightblue" stroke="midnightblue" points="325.55,-26.46 317.35,-19.75 319.58,-30.11 325.55,-26.46"/>
</g>
<!-- Node8 -->
<g id="node8" class="node">
<title>Node8</title>
<g id="a_node8"><a xlink:title=" ">
<polygon fill="white" stroke="#bfbfbf" points="354,-0.5 354,-19.5 404,-19.5 404,-0.5 354,-0.5"/>
<text text-anchor="middle" x="379" y="-7.5" font-family="Helvetica,sans-Serif" font-size="10.00">chrono</text>
</a>
</g>
</g>
<!-- Node2&#45;&gt;Node8 -->
<g id="edge7" class="edge">
<title>Node2&#45;&gt;Node8</title>
<path fill="none" stroke="midnightblue" d="M350.61,-56.08C355.37,-48.53 362.32,-37.49 368.15,-28.23"/>
<polygon fill="midnightblue" stroke="midnightblue" points="371.12,-30.08 373.49,-19.75 365.2,-26.35 371.12,-30.08"/>
</g>
<!-- Node9 -->
<g id="node9" class="node">
<title>Node9</title>
<g id="a_node9"><a xlink:title=" ">
<polygon fill="white" stroke="#bfbfbf" points="422,-0.5 422,-19.5 478,-19.5 478,-0.5 422,-0.5"/>
<text text-anchor="middle" x="450" y="-7.5" font-family="Helvetica,sans-Serif" font-size="10.00">iomanip</text>
</a>
</g>
</g>
<!-- Node2&#45;&gt;Node9 -->
<g id="edge8" class="edge">
<title>Node2&#45;&gt;Node9</title>
<path fill="none" stroke="midnightblue" d="M361.87,-56.32C378.71,-47.66 404.81,-34.24 424.24,-24.25"/>
<polygon fill="midnightblue" stroke="midnightblue" points="425.88,-27.34 433.17,-19.65 422.68,-21.12 425.88,-27.34"/>
</g>
<!-- Node10 -->
<g id="node10" class="node">
<title>Node10</title>
<g id="a_node10"><a xlink:title=" ">
<polygon fill="white" stroke="#bfbfbf" points="496,-0.5 496,-19.5 554,-19.5 554,-0.5 496,-0.5"/>
<text text-anchor="middle" x="525" y="-7.5" font-family="Helvetica,sans-Serif" font-size="10.00">memory</text>
</a>
</g>
</g>
<!-- Node2&#45;&gt;Node10 -->
<g id="edge9" class="edge">
<title>Node2&#45;&gt;Node10</title>
<path fill="none" stroke="midnightblue" d="M373.52,-56.44C404.07,-47.28 452.71,-32.69 486.6,-22.52"/>
<polygon fill="midnightblue" stroke="midnightblue" points="488.04,-25.74 496.61,-19.52 486.03,-19.04 488.04,-25.74"/>
</g>
<!-- Node11 -->
<g id="node11" class="node">
<title>Node11</title>
<g id="a_node11"><a xlink:title=" ">
<polygon fill="white" stroke="#bfbfbf" points="572,-0.5 572,-19.5 622,-19.5 622,-0.5 572,-0.5"/>
<text text-anchor="middle" x="597" y="-7.5" font-family="Helvetica,sans-Serif" font-size="10.00">atomic</text>
</a>
</g>
</g>
<!-- Node2&#45;&gt;Node11 -->
<g id="edge10" class="edge">
<title>Node2&#45;&gt;Node11</title>
<path fill="none" stroke="midnightblue" d="M374.03,-59.54C414.11,-51.88 488.88,-37.18 561.96,-20.15"/>
<polygon fill="midnightblue" stroke="midnightblue" points="562.85,-23.53 571.79,-17.84 561.25,-16.72 562.85,-23.53"/>
</g>
<!-- Node12 -->
<g id="node12" class="node">
<title>Node12</title>
<g id="a_node12"><a xlink:title=" ">
<polygon fill="white" stroke="#bfbfbf" points="640.5,-0.5 640.5,-19.5 685.5,-19.5 685.5,-0.5 640.5,-0.5"/>
<text text-anchor="middle" x="663" y="-7.5" font-family="Helvetica,sans-Serif" font-size="10.00">utility</text>
</a>
</g>
</g>
<!-- Node2&#45;&gt;Node12 -->
<g id="edge11" class="edge">
<title>Node2&#45;&gt;Node12</title>
<path fill="none" stroke="midnightblue" d="M374.03,-61.58C424.27,-55.43 530.79,-41.28 630.43,-19.89"/>
<polygon fill="midnightblue" stroke="midnightblue" points="631.33,-23.27 640.36,-17.73 629.84,-16.43 631.33,-23.27"/>
</g>
</g>
</svg>
