<?xml version="1.0" encoding="UTF-8" standalone="no"?>
<!DOCTYPE svg PUBLIC "-//W3C//DTD SVG 1.1//EN"
 "http://www.w3.org/Graphics/SVG/1.1/DTD/svg11.dtd">
<!-- Generated by graphviz version 2.43.0 (0)
 -->
<!-- Title: main Pages: 1 -->
<svg width="498pt" height="521pt"
 viewBox="0.00 0.00 498.00 521.04" xmlns="http://www.w3.org/2000/svg" xmlns:xlink="http://www.w3.org/1999/xlink">
<g id="graph0" class="graph" transform="scale(1 1) rotate(0) translate(4 517.04)">
<title>main</title>
<polygon fill="white" stroke="transparent" points="-4,4 -4,-517.04 494,-517.04 494,4 -4,4"/>
<!-- Node1 -->
<g id="node1" class="node">
<title>Node1</title>
<g id="a_node1"><a xlink:title="Main function to start the Meiern game.">
<polygon fill="#bfbfbf" stroke="black" points="0,-247.5 0,-266.5 41,-266.5 41,-247.5 0,-247.5"/>
<text text-anchor="middle" x="20.5" y="-254.5" font-family="Helvetica,sans-Serif" font-size="10.00">main</text>
</a>
</g>
</g>
<!-- Node2 -->
<g id="node2" class="node">
<title>Node2</title>
<g id="a_node2"><a xlink:href="classGame.html#a21e84929e65becfaf841315c4a710db0" target="_top" xlink:title=" ">
<polygon fill="white" stroke="black" points="77,-133.5 77,-152.5 168,-152.5 168,-133.5 77,-133.5"/>
<text text-anchor="middle" x="122.5" y="-140.5" font-family="Helvetica,sans-Serif" font-size="10.00">Game::runLoop</text>
</a>
</g>
</g>
<!-- Node1&#45;&gt;Node2 -->
<g id="edge1" class="edge">
<title>Node1&#45;&gt;Node2</title>
<path fill="none" stroke="midnightblue" d="M30.03,-247.28C46.93,-228.01 84.88,-184.75 106.21,-160.43"/>
<polygon fill="midnightblue" stroke="midnightblue" points="109.03,-162.52 113,-152.69 103.77,-157.9 109.03,-162.52"/>
</g>
<!-- Node10 -->
<g id="node10" class="node">
<title>Node10</title>
<g id="a_node10"><a xlink:href="classGame.html#acc9a76ffc666fff5fc2e15a388dd8b89" target="_top" xlink:title=" ">
<polygon fill="white" stroke="black" points="83,-361.5 83,-380.5 162,-380.5 162,-361.5 83,-361.5"/>
<text text-anchor="middle" x="122.5" y="-368.5" font-family="Helvetica,sans-Serif" font-size="10.00">Game::setup</text>
</a>
</g>
</g>
<!-- Node1&#45;&gt;Node10 -->
<g id="edge11" class="edge">
<title>Node1&#45;&gt;Node10</title>
<path fill="none" stroke="midnightblue" d="M30.03,-266.72C46.93,-285.99 84.88,-329.25 106.21,-353.57"/>
<polygon fill="midnightblue" stroke="midnightblue" points="103.77,-356.1 113,-361.31 109.03,-351.48 103.77,-356.1"/>
</g>
<!-- Node3 -->
<g id="node3" class="node">
<title>Node3</title>
<g id="a_node3"><a xlink:href="classGame.html#a041c5124e270eb77792e6dc1fb5ccd5b" target="_top" xlink:title=" ">
<polygon fill="white" stroke="black" points="204,-190.5 204,-209.5 363,-209.5 363,-190.5 204,-190.5"/>
<text text-anchor="middle" x="283.5" y="-197.5" font-family="Helvetica,sans-Serif" font-size="10.00">Game::displayCurrentPlayers</text>
</a>
</g>
</g>
<!-- Node2&#45;&gt;Node3 -->
<g id="edge2" class="edge">
<title>Node2&#45;&gt;Node3</title>
<path fill="none" stroke="midnightblue" d="M145.16,-152.51C161.24,-159.42 183.8,-168.79 204,-176 215.21,-180 227.46,-183.95 238.88,-187.45"/>
<polygon fill="midnightblue" stroke="midnightblue" points="238.08,-190.86 248.66,-190.4 240.1,-184.16 238.08,-190.86"/>
</g>
<!-- Node4 -->
<g id="node4" class="node">
<title>Node4</title>
<g id="a_node4"><a xlink:href="classLogger.html#a01c0418adaf7a2c70e330bbc727f4bcf" target="_top" xlink:title=" ">
<polygon fill="white" stroke="black" points="407.5,-228.5 407.5,-247.5 481.5,-247.5 481.5,-228.5 407.5,-228.5"/>
<text text-anchor="middle" x="444.5" y="-235.5" font-family="Helvetica,sans-Serif" font-size="10.00">Logger::info</text>
</a>
</g>
</g>
<!-- Node2&#45;&gt;Node4 -->
<g id="edge8" class="edge">
<title>Node2&#45;&gt;Node4</title>
<path fill="none" stroke="midnightblue" d="M130.14,-152.59C142.45,-169.49 170.62,-204.18 204,-219 266.46,-246.74 347.07,-246.75 397.02,-243.17"/>
<polygon fill="midnightblue" stroke="midnightblue" points="397.5,-246.64 407.19,-242.36 396.95,-239.66 397.5,-246.64"/>
</g>
<!-- Node5 -->
<g id="node5" class="node">
<title>Node5</title>
<g id="a_node5"><a xlink:href="classCyclicList.html#a6f2f89835357e21a066860f1b66db128" target="_top" xlink:title=" ">
<polygon fill="white" stroke="black" points="399,-171.5 399,-190.5 490,-190.5 490,-171.5 399,-171.5"/>
<text text-anchor="middle" x="444.5" y="-178.5" font-family="Helvetica,sans-Serif" font-size="10.00">CyclicList::next</text>
</a>
</g>
</g>
<!-- Node2&#45;&gt;Node5 -->
<g id="edge9" class="edge">
<title>Node2&#45;&gt;Node5</title>
<path fill="none" stroke="midnightblue" d="M168.33,-148.32C226.17,-155.19 326.74,-167.13 388.95,-174.52"/>
<polygon fill="midnightblue" stroke="midnightblue" points="388.63,-178.01 398.97,-175.71 389.45,-171.06 388.63,-178.01"/>
</g>
<!-- Node6 -->
<g id="node6" class="node">
<title>Node6</title>
<g id="a_node6"><a xlink:href="classCyclicList.html#a15fc77cb16d9e64ee537b8873fd8725c" target="_top" xlink:title=" ">
<polygon fill="white" stroke="black" points="235.5,-114.5 235.5,-133.5 331.5,-133.5 331.5,-114.5 235.5,-114.5"/>
<text text-anchor="middle" x="283.5" y="-121.5" font-family="Helvetica,sans-Serif" font-size="10.00">CyclicList::erase</text>
</a>
</g>
</g>
<!-- Node2&#45;&gt;Node6 -->
<g id="edge5" class="edge">
<title>Node2&#45;&gt;Node6</title>
<path fill="none" stroke="midnightblue" d="M168.21,-137.66C185.97,-135.54 206.6,-133.07 225.41,-130.82"/>
<polygon fill="midnightblue" stroke="midnightblue" points="225.84,-134.3 235.35,-129.63 225,-127.35 225.84,-134.3"/>
</g>
<!-- Node7 -->
<g id="node7" class="node">
<title>Node7</title>
<g id="a_node7"><a xlink:href="classLogger.html#af62eeadd3bc7d7859f53f7dcd529c2a0" target="_top" xlink:title=" ">
<polygon fill="white" stroke="black" points="244,-76.5 244,-95.5 323,-95.5 323,-76.5 244,-76.5"/>
<text text-anchor="middle" x="283.5" y="-83.5" font-family="Helvetica,sans-Serif" font-size="10.00">Logger::error</text>
</a>
</g>
</g>
<!-- Node2&#45;&gt;Node7 -->
<g id="edge6" class="edge">
<title>Node2&#45;&gt;Node7</title>
<path fill="none" stroke="midnightblue" d="M140.97,-133.48C156.98,-125.06 181.56,-112.92 204,-105 213.52,-101.64 223.9,-98.67 233.89,-96.13"/>
<polygon fill="midnightblue" stroke="midnightblue" points="234.82,-99.5 243.71,-93.74 233.17,-92.7 234.82,-99.5"/>
</g>
<!-- Node8 -->
<g id="node8" class="node">
<title>Node8</title>
<g id="a_node8"><a xlink:href="classGame.html#a9e1bb97110af4614de7023e696f6661d" target="_top" xlink:title=" ">
<polygon fill="white" stroke="black" points="214.5,-38.5 214.5,-57.5 352.5,-57.5 352.5,-38.5 214.5,-38.5"/>
<text text-anchor="middle" x="283.5" y="-45.5" font-family="Helvetica,sans-Serif" font-size="10.00">Game::handoverDiceCup</text>
</a>
</g>
</g>
<!-- Node2&#45;&gt;Node8 -->
<g id="edge7" class="edge">
<title>Node2&#45;&gt;Node8</title>
<path fill="none" stroke="midnightblue" d="M130.8,-133.41C143.71,-117.14 172.24,-84.23 204,-67 208.24,-64.7 212.77,-62.67 217.42,-60.89"/>
<polygon fill="midnightblue" stroke="midnightblue" points="218.78,-64.12 227.09,-57.56 216.5,-57.5 218.78,-64.12"/>
</g>
<!-- Node9 -->
<g id="node9" class="node">
<title>Node9</title>
<g id="a_node9"><a xlink:href="classCyclicList.html#a45b86b5e4147a1d470b51a6d25654f6d" target="_top" xlink:title=" ">
<polygon fill="white" stroke="black" points="239,-0.5 239,-19.5 328,-19.5 328,-0.5 239,-0.5"/>
<text text-anchor="middle" x="283.5" y="-7.5" font-family="Helvetica,sans-Serif" font-size="10.00">CyclicList::size</text>
</a>
</g>
</g>
<!-- Node2&#45;&gt;Node9 -->
<g id="edge10" class="edge">
<title>Node2&#45;&gt;Node9</title>
<path fill="none" stroke="midnightblue" d="M127.47,-133.26C137.06,-111.04 163.72,-56.37 204,-29 211.42,-23.96 220.02,-20.26 228.77,-17.53"/>
<polygon fill="midnightblue" stroke="midnightblue" points="229.9,-20.85 238.64,-14.85 228.07,-14.09 229.9,-20.85"/>
</g>
<!-- Node3&#45;&gt;Node4 -->
<g id="edge3" class="edge">
<title>Node3&#45;&gt;Node4</title>
<path fill="none" stroke="midnightblue" d="M324.62,-209.59C346.82,-214.89 374.5,-221.51 397.56,-227.02"/>
<polygon fill="midnightblue" stroke="midnightblue" points="396.92,-230.47 407.46,-229.39 398.55,-223.66 396.92,-230.47"/>
</g>
<!-- Node3&#45;&gt;Node5 -->
<g id="edge4" class="edge">
<title>Node3&#45;&gt;Node5</title>
<path fill="none" stroke="midnightblue" d="M363.07,-190.61C371.65,-189.59 380.25,-188.56 388.46,-187.58"/>
<polygon fill="midnightblue" stroke="midnightblue" points="389.11,-191.02 398.62,-186.36 388.28,-184.07 389.11,-191.02"/>
</g>
<!-- Node10&#45;&gt;Node4 -->
<g id="edge17" class="edge">
<title>Node10&#45;&gt;Node4</title>
<path fill="none" stroke="midnightblue" d="M126.81,-380.73C135.3,-403.95 160.33,-462.38 204,-485 266.75,-517.51 305.81,-526.51 363,-485 437.51,-430.92 444.38,-306.03 444.1,-257.65"/>
<polygon fill="midnightblue" stroke="midnightblue" points="447.6,-257.5 443.93,-247.56 440.6,-257.62 447.6,-257.5"/>
</g>
<!-- Node11 -->
<g id="node11" class="node">
<title>Node11</title>
<g id="a_node11"><a xlink:href="classInteraction.html#af56f22e33c6eb8f6961ad5a9b94ce8cd" target="_top" xlink:title="Prompts the user to enter their name.">
<polygon fill="white" stroke="black" points="221,-456.5 221,-475.5 346,-475.5 346,-456.5 221,-456.5"/>
<text text-anchor="middle" x="283.5" y="-463.5" font-family="Helvetica,sans-Serif" font-size="10.00">Interaction::ask_name</text>
</a>
</g>
</g>
<!-- Node10&#45;&gt;Node11 -->
<g id="edge12" class="edge">
<title>Node10&#45;&gt;Node11</title>
<path fill="none" stroke="midnightblue" d="M130.8,-380.59C143.71,-396.86 172.24,-429.77 204,-447 208.24,-449.3 212.77,-451.33 217.42,-453.11"/>
<polygon fill="midnightblue" stroke="midnightblue" points="216.5,-456.5 227.09,-456.44 218.78,-449.88 216.5,-456.5"/>
</g>
<!-- Node12 -->
<g id="node12" class="node">
<title>Node12</title>
<g id="a_node12"><a xlink:href="classCyclicList.html#a11804f5deae630052d5285cca16714fc" target="_top" xlink:title=" ">
<polygon fill="white" stroke="black" points="235.5,-418.5 235.5,-437.5 331.5,-437.5 331.5,-418.5 235.5,-418.5"/>
<text text-anchor="middle" x="283.5" y="-425.5" font-family="Helvetica,sans-Serif" font-size="10.00">CyclicList::begin</text>
</a>
</g>
</g>
<!-- Node10&#45;&gt;Node12 -->
<g id="edge13" class="edge">
<title>Node10&#45;&gt;Node12</title>
<path fill="none" stroke="midnightblue" d="M140.97,-380.52C156.98,-388.94 181.56,-401.08 204,-409 211.25,-411.56 219,-413.89 226.7,-415.98"/>
<polygon fill="midnightblue" stroke="midnightblue" points="225.82,-419.37 236.38,-418.5 227.58,-412.6 225.82,-419.37"/>
</g>
<!-- Node13 -->
<g id="node13" class="node">
<title>Node13</title>
<g id="a_node13"><a xlink:href="classCyclicList.html#a428e337867c68a905053fbbd510699cf" target="_top" xlink:title=" ">
<polygon fill="white" stroke="black" points="237,-380.5 237,-399.5 330,-399.5 330,-380.5 237,-380.5"/>
<text text-anchor="middle" x="283.5" y="-387.5" font-family="Helvetica,sans-Serif" font-size="10.00">CyclicList::clear</text>
</a>
</g>
</g>
<!-- Node10&#45;&gt;Node13 -->
<g id="edge14" class="edge">
<title>Node10&#45;&gt;Node13</title>
<path fill="none" stroke="midnightblue" d="M162.4,-375.65C181.75,-377.96 205.5,-380.8 226.75,-383.34"/>
<polygon fill="midnightblue" stroke="midnightblue" points="226.61,-386.85 236.96,-384.56 227.44,-379.9 226.61,-386.85"/>
</g>
<!-- Node14 -->
<g id="node14" class="node">
<title>Node14</title>
<g id="a_node14"><a xlink:href="classLogger.html#ada857f479ed965d4120afe3ad2700fda" target="_top" xlink:title=" ">
<polygon fill="white" stroke="black" points="240.5,-342.5 240.5,-361.5 326.5,-361.5 326.5,-342.5 240.5,-342.5"/>
<text text-anchor="middle" x="283.5" y="-349.5" font-family="Helvetica,sans-Serif" font-size="10.00">Logger::debug</text>
</a>
</g>
</g>
<!-- Node10&#45;&gt;Node14 -->
<g id="edge15" class="edge">
<title>Node10&#45;&gt;Node14</title>
<path fill="none" stroke="midnightblue" d="M162.4,-366.35C182.79,-363.91 208.07,-360.89 230.16,-358.25"/>
<polygon fill="midnightblue" stroke="midnightblue" points="230.87,-361.69 240.38,-357.03 230.04,-354.74 230.87,-361.69"/>
</g>
<!-- Node15 -->
<g id="node15" class="node">
<title>Node15</title>
<g id="a_node15"><a xlink:href="classGreeting.html#a21b0bf5114b8a6a504780c944b70912f" target="_top" xlink:title="Generates a greeting message.">
<polygon fill="white" stroke="black" points="220.5,-304.5 220.5,-323.5 346.5,-323.5 346.5,-304.5 220.5,-304.5"/>
<text text-anchor="middle" x="283.5" y="-311.5" font-family="Helvetica,sans-Serif" font-size="10.00">Greeting::get_greeting</text>
</a>
</g>
</g>
<!-- Node10&#45;&gt;Node15 -->
<g id="edge16" class="edge">
<title>Node10&#45;&gt;Node15</title>
<path fill="none" stroke="midnightblue" d="M140.97,-361.48C156.98,-353.06 181.56,-340.92 204,-333 211.25,-330.44 219,-328.11 226.7,-326.02"/>
<polygon fill="midnightblue" stroke="midnightblue" points="227.58,-329.4 236.38,-323.5 225.82,-322.63 227.58,-329.4"/>
</g>
<!-- Node16 -->
<g id="node16" class="node">
<title>Node16</title>
<g id="a_node16"><a xlink:href="classCyclicList.html#a9b35df35eb36f05de8e888d2ded2a866" target="_top" xlink:title=" ">
<polygon fill="white" stroke="black" points="223,-266.5 223,-285.5 344,-285.5 344,-266.5 223,-266.5"/>
<text text-anchor="middle" x="283.5" y="-273.5" font-family="Helvetica,sans-Serif" font-size="10.00">CyclicList::push_back</text>
</a>
</g>
</g>
<!-- Node10&#45;&gt;Node16 -->
<g id="edge18" class="edge">
<title>Node10&#45;&gt;Node16</title>
<path fill="none" stroke="midnightblue" d="M130.8,-361.41C143.71,-345.14 172.24,-312.23 204,-295 208.24,-292.7 212.77,-290.67 217.42,-288.89"/>
<polygon fill="midnightblue" stroke="midnightblue" points="218.78,-292.12 227.09,-285.56 216.5,-285.5 218.78,-292.12"/>
</g>
</g>
</svg>
