<?xml version="1.0" encoding="UTF-8" standalone="no"?>
<!DOCTYPE svg PUBLIC "-//W3C//DTD SVG 1.1//EN"
 "http://www.w3.org/Graphics/SVG/1.1/DTD/svg11.dtd">
<!-- Generated by graphviz version 2.43.0 (0)
 -->
<!-- Title: /mnt/d/private/github/Meiern/include/MeiernDiceCup.h Pages: 1 -->
<svg width="308pt" height="207pt"
 viewBox="0.00 0.00 308.00 207.00" xmlns="http://www.w3.org/2000/svg" xmlns:xlink="http://www.w3.org/1999/xlink">
<g id="graph0" class="graph" transform="scale(1 1) rotate(0) translate(4 203)">
<title>/mnt/d/private/github/Meiern/include/MeiernDiceCup.h</title>
<polygon fill="white" stroke="transparent" points="-4,4 -4,-203 304,-203 304,4 -4,4"/>
<!-- Node1 -->
<g id="node1" class="node">
<title>Node1</title>
<g id="a_node1"><a xlink:title="Declaration of the MeiernDiceCup class.">
<polygon fill="#bfbfbf" stroke="black" points="37,-168.5 37,-198.5 215,-198.5 215,-168.5 37,-168.5"/>
<text text-anchor="start" x="45" y="-186.5" font-family="Helvetica,sans-Serif" font-size="10.00">/mnt/d/private/github</text>
<text text-anchor="middle" x="126" y="-175.5" font-family="Helvetica,sans-Serif" font-size="10.00">/Meiern/include/MeiernDiceCup.h</text>
</a>
</g>
</g>
<!-- Node2 -->
<g id="node2" class="node">
<title>Node2</title>
<g id="a_node2"><a xlink:href="Announcement_8h.html" target="_top" xlink:title="Declaration of the Announcement class.">
<polygon fill="white" stroke="black" points="26.5,-112.5 26.5,-131.5 125.5,-131.5 125.5,-112.5 26.5,-112.5"/>
<text text-anchor="middle" x="76" y="-119.5" font-family="Helvetica,sans-Serif" font-size="10.00">Announcement.h</text>
</a>
</g>
</g>
<!-- Node1&#45;&gt;Node2 -->
<g id="edge1" class="edge">
<title>Node1&#45;&gt;Node2</title>
<path fill="none" stroke="midnightblue" d="M114.15,-168.4C106.89,-159.75 97.55,-148.64 89.93,-139.58"/>
<polygon fill="midnightblue" stroke="midnightblue" points="92.39,-137.06 83.28,-131.66 87.03,-141.57 92.39,-137.06"/>
</g>
<!-- Node5 -->
<g id="node5" class="node">
<title>Node5</title>
<g id="a_node5"><a xlink:href="DiceCup_8h.html" target="_top" xlink:title="Declaration of the DiceCup class.">
<polygon fill="white" stroke="black" points="144,-112.5 144,-131.5 210,-131.5 210,-112.5 144,-112.5"/>
<text text-anchor="middle" x="177" y="-119.5" font-family="Helvetica,sans-Serif" font-size="10.00">DiceCup.h</text>
</a>
</g>
</g>
<!-- Node1&#45;&gt;Node5 -->
<g id="edge4" class="edge">
<title>Node1&#45;&gt;Node5</title>
<path fill="none" stroke="midnightblue" d="M138.09,-168.4C145.57,-159.66 155.22,-148.41 163.03,-139.3"/>
<polygon fill="midnightblue" stroke="midnightblue" points="165.73,-141.53 169.58,-131.66 160.41,-136.97 165.73,-141.53"/>
</g>
<!-- Node3 -->
<g id="node3" class="node">
<title>Node3</title>
<g id="a_node3"><a xlink:title=" ">
<polygon fill="white" stroke="#bfbfbf" points="0,-56.5 0,-75.5 64,-75.5 64,-56.5 0,-56.5"/>
<text text-anchor="middle" x="32" y="-63.5" font-family="Helvetica,sans-Serif" font-size="10.00">algorithm</text>
</a>
</g>
</g>
<!-- Node2&#45;&gt;Node3 -->
<g id="edge2" class="edge">
<title>Node2&#45;&gt;Node3</title>
<path fill="none" stroke="midnightblue" d="M68.73,-112.08C62.46,-104.38 53.21,-93.03 45.57,-83.65"/>
<polygon fill="midnightblue" stroke="midnightblue" points="48.16,-81.29 39.13,-75.75 42.73,-85.71 48.16,-81.29"/>
</g>
<!-- Node4 -->
<g id="node4" class="node">
<title>Node4</title>
<g id="a_node4"><a xlink:title=" ">
<polygon fill="white" stroke="#bfbfbf" points="82.5,-56.5 82.5,-75.5 129.5,-75.5 129.5,-56.5 82.5,-56.5"/>
<text text-anchor="middle" x="106" y="-63.5" font-family="Helvetica,sans-Serif" font-size="10.00">vector</text>
</a>
</g>
</g>
<!-- Node2&#45;&gt;Node4 -->
<g id="edge3" class="edge">
<title>Node2&#45;&gt;Node4</title>
<path fill="none" stroke="midnightblue" d="M80.95,-112.08C85.1,-104.61 91.15,-93.72 96.27,-84.52"/>
<polygon fill="midnightblue" stroke="midnightblue" points="99.34,-86.19 101.14,-75.75 93.22,-82.79 99.34,-86.19"/>
</g>
<!-- Node5&#45;&gt;Node4 -->
<g id="edge5" class="edge">
<title>Node5&#45;&gt;Node4</title>
<path fill="none" stroke="midnightblue" d="M165.59,-112.32C154.89,-104.18 138.66,-91.84 125.84,-82.09"/>
<polygon fill="midnightblue" stroke="midnightblue" points="127.69,-79.1 117.61,-75.83 123.46,-84.67 127.69,-79.1"/>
</g>
<!-- Node6 -->
<g id="node6" class="node">
<title>Node6</title>
<g id="a_node6"><a xlink:title=" ">
<polygon fill="white" stroke="#bfbfbf" points="148,-56.5 148,-75.5 206,-75.5 206,-56.5 148,-56.5"/>
<text text-anchor="middle" x="177" y="-63.5" font-family="Helvetica,sans-Serif" font-size="10.00">memory</text>
</a>
</g>
</g>
<!-- Node5&#45;&gt;Node6 -->
<g id="edge6" class="edge">
<title>Node5&#45;&gt;Node6</title>
<path fill="none" stroke="midnightblue" d="M177,-112.08C177,-105.01 177,-94.86 177,-85.99"/>
<polygon fill="midnightblue" stroke="midnightblue" points="180.5,-85.75 177,-75.75 173.5,-85.75 180.5,-85.75"/>
</g>
<!-- Node7 -->
<g id="node7" class="node">
<title>Node7</title>
<g id="a_node7"><a xlink:href="Die_8h.html" target="_top" xlink:title="Declaration of the Die class.">
<polygon fill="white" stroke="black" points="224,-56.5 224,-75.5 266,-75.5 266,-56.5 224,-56.5"/>
<text text-anchor="middle" x="245" y="-63.5" font-family="Helvetica,sans-Serif" font-size="10.00">Die.h</text>
</a>
</g>
</g>
<!-- Node5&#45;&gt;Node7 -->
<g id="edge7" class="edge">
<title>Node5&#45;&gt;Node7</title>
<path fill="none" stroke="midnightblue" d="M187.93,-112.32C198.17,-104.18 213.72,-91.84 226,-82.09"/>
<polygon fill="midnightblue" stroke="midnightblue" points="228.22,-84.79 233.88,-75.83 223.87,-79.31 228.22,-84.79"/>
</g>
<!-- Node8 -->
<g id="node8" class="node">
<title>Node8</title>
<g id="a_node8"><a xlink:title=" ">
<polygon fill="white" stroke="#bfbfbf" points="184,-0.5 184,-19.5 238,-19.5 238,-0.5 184,-0.5"/>
<text text-anchor="middle" x="211" y="-7.5" font-family="Helvetica,sans-Serif" font-size="10.00">random</text>
</a>
</g>
</g>
<!-- Node7&#45;&gt;Node8 -->
<g id="edge8" class="edge">
<title>Node7&#45;&gt;Node8</title>
<path fill="none" stroke="midnightblue" d="M239.39,-56.08C234.63,-48.53 227.68,-37.49 221.85,-28.23"/>
<polygon fill="midnightblue" stroke="midnightblue" points="224.8,-26.35 216.51,-19.75 218.88,-30.08 224.8,-26.35"/>
</g>
<!-- Node9 -->
<g id="node9" class="node">
<title>Node9</title>
<g id="a_node9"><a xlink:title=" ">
<polygon fill="white" stroke="#bfbfbf" points="256,-0.5 256,-19.5 300,-19.5 300,-0.5 256,-0.5"/>
<text text-anchor="middle" x="278" y="-7.5" font-family="Helvetica,sans-Serif" font-size="10.00">ctime</text>
</a>
</g>
</g>
<!-- Node7&#45;&gt;Node9 -->
<g id="edge9" class="edge">
<title>Node7&#45;&gt;Node9</title>
<path fill="none" stroke="midnightblue" d="M250.45,-56.08C255.01,-48.61 261.67,-37.72 267.29,-28.52"/>
<polygon fill="midnightblue" stroke="midnightblue" points="270.42,-30.11 272.65,-19.75 264.45,-26.46 270.42,-30.11"/>
</g>
</g>
</svg>
